<?xml version="1.0" encoding="UTF-8"?>
<svg width="735px" height="254px" viewBox="0 0 735 254" version="1.1" xmlns="http://www.w3.org/2000/svg" xmlns:xlink="http://www.w3.org/1999/xlink">
    <!-- Generator: Sketch 52.2 (67145) - http://www.bohemiancoding.com/sketch -->
    <title>6</title>
    <desc>Created with Sketch.</desc>
    <g id="Brand-Layouts-SPECS" stroke="none" stroke-width="1" fill="none" fill-rule="evenodd">
        <g id="Page"></g>
        <g id="6">
            <g id="Group" fill="#026CDF">
                <rect id="Rectangle-4" x="0" y="0" width="735" height="254" rx="3.84816754"></rect>
            </g>
            <path d="M463.795293,134.724895 L468.4133,134.724895 L469.520367,129.378011 C469.529548,129.367549 469.537198,129.359502 469.546379,129.348235 L476.363983,127.001529 C476.412183,126.985434 476.458853,127.029696 476.448142,127.082006 L474.888149,134.724895 L480.58721,134.724895 C480.627759,134.724895 480.657597,134.763524 480.648416,134.805372 L479.673708,139.638009 C479.662232,139.694342 479.616327,139.733776 479.562007,139.733776 L473.856825,139.733776 L471.632745,151.039973 C471.404752,152.144116 471.348136,152.448318 471.210422,153.280449 C470.954122,154.827215 472.416949,155.572431 473.869831,155.572431 C474.983784,155.572431 475.769518,155.189361 476.559078,154.856991 C476.591211,154.84331 476.62411,154.873087 476.617224,154.908497 L475.414522,160.903219 C475.406872,160.937824 475.380094,160.965991 475.347196,160.975648 C474.254665,161.270194 473.31668,161.460924 472.227975,161.460924 C467.845612,161.460924 464.750875,159.657437 464.750875,154.620389 C464.750875,152.594786 465.141064,150.615055 465.570272,148.533118 L467.402633,139.733776 L462.786921,139.733776 C462.748667,139.733776 462.719594,139.696757 462.727245,139.657323 L463.737912,134.773181 C463.744033,134.74421 463.76775,134.724895 463.795293,134.724895 Z M361.5144,134.724895 L366.133172,134.724895 L367.240239,129.378011 C367.250185,129.367549 367.256305,129.359502 367.265486,129.348235 L374.083855,127.001529 C374.132055,126.985434 374.178725,127.029696 374.168779,127.082006 L372.607256,134.724895 L378.307082,134.724895 C378.346866,134.724895 378.377469,134.763524 378.369054,134.805372 L377.39358,139.638009 C377.382869,139.694342 377.336199,139.733776 377.282644,139.733776 L371.577462,139.733776 L369.353382,151.039973 C369.125389,152.144116 369.068008,152.448318 368.930295,153.280449 C368.673994,154.827215 370.136821,155.572431 371.589703,155.572431 C372.703656,155.572431 373.490155,155.189361 374.27895,154.856991 C374.310318,154.84331 374.343982,154.873087 374.336331,154.908497 L373.133629,160.903219 C373.126744,160.937824 373.099966,160.965991 373.067068,160.975648 C371.973772,161.270194 371.037317,161.460924 369.947847,161.460924 C365.564719,161.460924 362.470747,159.657437 362.470747,154.620389 C362.470747,152.594786 362.860171,150.615055 363.29091,148.533118 L365.12174,139.733776 L360.506028,139.733776 C360.467774,139.733776 360.439466,139.696757 360.447882,139.657323 L361.457784,134.773181 C361.463905,134.74421 361.486857,134.724895 361.5144,134.724895 Z M502.876208,144.049751 C502.876208,145.960272 502.64439,147.821703 502.283273,149.671061 C502.267972,149.745905 502.205235,149.799019 502.133318,149.799019 L487.362735,149.799019 C487.282402,149.799019 487.21584,149.735443 487.210485,149.652552 C487.139332,148.512999 487.249504,147.15133 487.864626,145.317262 C487.885283,145.252881 487.944194,145.208618 488.00846,145.208618 L496.506939,145.208618 C496.581917,145.208618 496.646948,145.148261 496.658425,145.069393 C496.737228,144.516517 496.776247,144.003075 496.776247,143.448589 C496.776247,140.693865 495.395282,139.14549 492.728222,139.14549 C488.968632,139.14549 487.057469,141.472882 485.834876,144.7668 C485.183795,146.374728 484.99023,147.945637 484.975694,149.696814 C484.975694,149.696814 484.9887,150.51124 484.9887,150.747037 L484.995586,150.747037 C485.313093,154.80951 487.304589,156.085068 491.386277,156.085068 C493.824578,156.085068 496.581917,155.565188 498.875619,154.560032 C499.093666,154.464264 499.327014,154.653385 499.28876,154.898839 L498.493845,159.881968 C498.473953,160.004293 498.39056,160.104889 498.277328,160.140298 C495.857389,160.895976 493.236234,161.23237 490.680875,161.23237 C483.618447,161.23237 478.85737,157.637468 478.85737,149.966411 C478.85737,141.950109 484.775244,134.229158 492.823092,134.229158 C498.883269,134.229158 502.876208,137.478814 502.876208,144.049751 Z M426.443453,156.448019 C431.221361,156.448019 432.692604,152.991537 433.691795,148.833297 L431.457769,148.833297 C428.355381,148.833297 423.219417,149.383759 423.219417,153.740777 C423.219417,155.537021 424.842146,156.448019 426.443453,156.448019 Z M432.692604,157.19243 L432.678833,157.273712 C430.490712,160.174099 428.639225,161.636364 425.114513,161.636364 C420.675535,161.636364 417.11869,159.145604 417.11869,154.385397 C417.11869,145.859676 426.164199,145.208618 432.175412,145.208618 L434.352822,145.208618 C434.384955,145.208618 434.414028,145.186085 434.421679,145.153089 C434.606828,144.465817 434.606828,143.735891 434.606828,142.998723 C434.606828,140.400929 431.928292,139.650885 429.699622,139.650885 C426.918566,139.650885 424.253801,140.376786 421.760414,141.584744 C421.708389,141.610497 421.652538,141.564625 421.663249,141.506682 L422.510955,136.477682 C422.530082,136.363404 422.607355,136.267637 422.712171,136.229813 C425.373875,135.269724 428.086074,134.736967 430.882431,134.736967 C435.798053,134.736967 440.406879,136.643464 440.406879,142.701763 C440.406114,146.201703 438.013717,156.070583 437.421547,161.09073 C437.416957,161.12775 437.387119,161.153502 437.351925,161.153502 L432.111146,161.153502 C432.067536,161.153502 432.033873,161.111654 432.042289,161.065783 L432.692604,157.19243 Z M289.356132,123.788087 L295.492817,123.788087 C295.566264,123.788087 295.62135,123.860516 295.606048,123.936969 L294.329134,130.112765 C294.316893,130.169099 294.270223,130.209337 294.215903,130.209337 L288.061621,130.209337 C287.987408,130.209337 287.932323,130.136908 287.947624,130.060455 L289.2429,123.883855 C289.254376,123.828326 289.301811,123.788087 289.356132,123.788087 Z M287.156534,134.736162 L293.045334,134.698338 C293.196055,134.697533 293.307756,134.842391 293.276388,134.996907 L287.982818,161.056125 C287.969811,161.122921 287.913196,161.170403 287.848164,161.170403 L281.82318,161.170403 C281.692352,161.170403 281.595187,161.043249 281.62273,160.908853 L286.915535,134.942988 C286.940017,134.822272 287.040243,134.736162 287.156534,134.736162 Z M312.211287,140.73008 C312.182214,140.830676 312.072043,140.874134 311.986354,140.819409 C310.758405,140.042807 309.154803,139.625132 307.470868,139.625132 C302.374687,139.625132 299.561498,144.546294 299.561498,149.399854 C299.561498,152.758959 300.305918,155.497587 304.686751,155.497587 C306.195484,155.497587 308.461643,155.211894 310.092788,154.413564 C310.16853,154.37574 310.253454,154.440926 310.240447,154.528646 L309.453183,160.244918 C307.49229,161.243636 305.427346,161.323309 303.335625,161.323309 C296.993899,161.323309 292.896909,156.872937 292.896909,150.208647 C292.896909,141.181555 298.563837,134.318487 307.374468,134.318487 C309.753093,134.318487 312.046795,134.757891 313.769749,135.325253 L312.211287,140.73008 Z M319.708279,123.151515 L325.806711,123.151515 C325.892399,123.151515 325.955901,123.234406 325.938304,123.322126 L321.729614,144.294401 L330.884529,134.753867 C330.89524,134.7426 330.909777,134.736967 330.923548,134.736967 L339.05479,134.736967 C339.103755,134.736967 339.128237,134.800543 339.092279,134.835953 L327.288666,146.666055 C327.271069,146.683759 327.267243,146.712731 327.27872,146.735265 L334.768827,160.965186 C334.789484,161.003815 334.762706,161.051297 334.721392,161.051297 L327.662023,161.051297 C327.641366,161.051297 327.623004,161.03842 327.613823,161.019106 L321.106841,147.04832 L321.020387,147.04832 L318.198017,161.008644 C318.192661,161.035201 318.170474,161.054516 318.144461,161.054516 L312.014662,161.054516 C311.980233,161.054516 311.954221,161.020716 311.961871,160.985306 L319.557559,123.280278 C319.572861,123.205435 319.635597,123.151515 319.708279,123.151515 Z M266.592097,134.724895 L271.210104,134.724895 L272.317171,129.378011 C272.326352,129.367549 272.334003,129.359502 272.343184,129.348235 L279.161553,127.001529 C279.208987,126.985434 279.255657,127.029696 279.244946,127.082006 L277.684953,134.724895 L283.384014,134.724895 C283.424564,134.724895 283.454402,134.763524 283.445986,134.805372 L282.470512,139.638009 C282.459036,139.694342 282.413131,139.733776 282.358811,139.733776 L276.653629,139.733776 L274.429549,151.039973 C274.201556,152.144116 274.144941,152.448318 274.007227,153.280449 C273.750926,154.827215 275.213754,155.572431 276.667401,155.572431 C277.781353,155.572431 278.566323,155.189361 279.355882,154.856991 C279.388016,154.84331 279.420914,154.873087 279.414028,154.908497 L278.211327,160.903219 C278.203676,160.937824 278.177663,160.965991 278.144,160.975648 C277.051469,161.270194 276.113485,161.460924 275.02478,161.460924 C270.642417,161.460924 267.547679,159.657437 267.547679,154.620389 C267.547679,152.594786 267.937868,150.615055 268.367842,148.533118 L270.199437,139.733776 L265.583725,139.733776 C265.545471,139.733776 265.517164,139.696757 265.524814,139.657323 L266.534716,134.773181 C266.540837,134.74421 266.564554,134.724895 266.592097,134.724895 M359.512193,144.139081 C359.512193,146.050406 359.281139,147.911837 358.919258,149.762 C358.903956,149.836039 358.84122,149.889958 358.770068,149.889958 L343.99872,149.889958 C343.918386,149.889958 343.85259,149.826382 343.847234,149.742686 C343.775317,148.603133 343.885488,147.241464 344.50061,145.406591 C344.522798,145.343015 344.580943,145.298752 344.64521,145.298752 L353.142924,145.298752 C353.218666,145.298752 353.283698,145.238395 353.294409,145.160332 C353.373212,144.605846 353.412996,144.094013 353.412996,143.538723 C353.412996,140.783999 352.032032,139.235624 349.364972,139.235624 C345.605382,139.235624 343.694219,141.562211 342.47086,144.856934 C341.819779,146.464058 341.626215,148.034966 341.611678,149.786143 C341.611678,149.786143 341.624685,150.602179 341.624685,150.837171 L341.63157,150.837171 C341.949077,154.898839 343.941339,156.175203 348.023026,156.175203 C350.461328,156.175203 353.218666,155.656127 355.511603,154.650971 C355.72965,154.555203 355.963764,154.743519 355.924745,154.989778 L355.130595,159.972102 C355.110703,160.093622 355.027309,160.195023 354.914078,160.230433 C352.493373,160.985306 349.872983,161.323309 347.31686,161.323309 C340.254431,161.323309 335.49412,157.727602 335.49412,150.05735 C335.49412,142.040244 341.411228,134.318487 349.459842,134.318487 C355.520019,134.318487 359.512193,137.568948 359.512193,144.139081 Z M381.134808,137.773359 C381.304655,136.81327 381.531883,135.668889 381.679543,134.852853 C381.692549,134.783643 381.749165,134.736967 381.816492,134.736967 L387.490305,134.736967 C387.577524,134.736967 387.643321,134.819858 387.628019,134.909992 L387.067983,138.174939 L387.074103,138.141943 C388.796292,135.503911 391.650796,134.318487 394.661375,134.318487 C397.561783,134.318487 400.568537,136.121974 400.899051,139.236429 L400.99392,139.236429 C402.606703,135.870886 406.18803,134.318487 409.616342,134.318487 C413.286418,134.318487 416.437006,137.478814 416.437006,141.392405 C416.437006,143.685996 415.870084,146.291837 415.342946,148.397112 L412.740918,160.907243 C412.726381,160.974844 412.669765,161.02313 412.603969,161.02313 L406.500182,161.02313 C406.411433,161.02313 406.344871,160.936215 406.363998,160.844471 L408.948429,148.151658 C409.278943,146.590406 409.755586,144.193805 409.755586,142.640601 C409.755586,140.72847 408.386098,139.526146 406.760308,139.526146 C402.335866,139.526146 401.234155,144.939021 400.423173,148.455056 L397.87011,160.906438 C397.855573,160.974039 397.798957,161.02313 397.733161,161.02313 L391.63932,161.02313 C391.550571,161.02313 391.484009,160.936215 391.503136,160.845276 L394.076856,148.151658 C394.421906,146.590406 394.896254,144.193805 394.897019,142.640601 C394.897019,140.72847 393.512994,139.526146 391.894091,139.526146 C387.569874,139.526146 386.360286,144.986502 385.555425,148.455056 L383.007717,160.906438 C382.993946,160.974039 382.936565,161.02313 382.871534,161.02313 L376.761626,161.02313 C376.672877,161.02313 376.606315,160.93702 376.623912,160.846081 L381.134808,137.773359 Z M459.383092,140.157889 C459.36779,140.215028 459.30888,140.243195 459.257619,140.216637 C458.512434,139.831958 456.825438,139.326563 455.086418,139.326563 C453.191321,139.326563 450.840239,139.786891 450.840239,141.832613 C450.840239,145.093536 459.129851,146.292642 459.129851,152.606858 C459.129851,159.321849 453.543257,161.324113 448.051532,161.324113 C445.526011,161.324113 442.959177,160.941043 440.649409,159.808734 C440.614215,159.791834 440.596618,159.75079 440.605799,159.711357 L441.984468,154.32343 C441.992884,154.292044 442.025783,154.277558 442.05256,154.292848 C443.842841,155.339048 445.596399,156.295918 448.043881,156.295918 C450.199104,156.295918 452.451491,155.667393 452.451491,153.570166 C452.451491,149.399049 444.151167,149.003103 444.151167,142.544834 C444.151167,136.470439 449.730876,134.319292 454.798749,134.319292 C457.076384,134.319292 459.41599,134.7426 460.691374,135.098308 C460.733453,135.110379 460.754876,135.153837 460.743399,135.197294 L459.383092,140.157889 Z M506.744439,138.371303 C506.931883,137.339589 507.130803,136.172674 507.304476,135.03956 C507.325133,134.903554 507.436834,134.804567 507.567662,134.804567 L513.13054,134.804567 C513.290441,134.804567 513.411323,134.956669 513.38225,135.122451 L512.54602,139.786891 L512.594985,139.353925 C512.596516,139.335416 512.601871,139.317711 512.608757,139.301615 C513.82676,136.548501 516.950571,134.319292 519.893823,134.319292 C520.65737,134.319292 521.450755,134.365968 522.166868,134.528532 C522.249496,134.547041 522.300756,134.634761 522.282395,134.720871 L521.018487,140.963463 C521.000125,141.055207 520.912906,141.109931 520.827983,141.080959 C520.145534,140.860452 519.313894,140.73008 518.561058,140.73008 C514.036391,140.73008 511.840619,144.985697 511.021221,149.15279 L508.765773,160.780894 C508.751237,160.855738 508.689266,160.908853 508.616583,160.908853 L502.65204,160.908853 C502.497495,160.908853 502.382733,160.760775 502.413336,160.600626 L506.744439,138.371303 Z M527.570609,136.966981 L528.229341,136.966981 C528.657784,136.966981 528.937037,136.867994 528.937037,136.405252 C528.937037,135.99643 528.592752,135.87491 528.229341,135.87491 L527.570609,135.87491 L527.570609,136.966981 Z M527.007512,135.412972 L528.320385,135.412972 C529.113005,135.412972 529.490188,135.746952 529.490188,136.425372 C529.490188,137.004 529.144373,137.423285 528.612644,137.423285 L529.585058,139.00546 L528.996713,139.00546 L528.035011,137.423285 L527.570609,137.423285 L527.570609,139.00546 L527.007512,139.00546 L527.007512,135.412972 Z M528.137531,139.82552 C529.474121,139.82552 530.488614,138.69321 530.488614,137.217264 C530.488614,135.746952 529.474121,134.607399 528.137531,134.607399 C526.777989,134.607399 525.766557,135.746952 525.766557,137.217264 C525.766557,138.69321 526.777989,139.82552 528.137531,139.82552 Z M528.12529,134.155119 C529.729657,134.155119 531.04712,135.524031 531.04712,137.217264 C531.04712,138.913717 529.729657,140.284238 528.12529,140.284238 C526.516332,140.284238 525.20958,138.913717 525.20958,137.217264 C525.20958,135.524031 526.516332,134.155119 528.12529,134.155119 Z" id="Fill-1" fill="#FFFFFF"></path>
            <path d="M204.666999,98.3074599 L216.069409,98.3074599 L218.804056,84.8727035 C218.825394,84.847457 218.843363,84.8258171 218.866947,84.7993683 L235.699344,78.9025021 C235.817265,78.8616268 235.934063,78.9734328 235.90711,79.1032721 L232.05502,98.3074599 L246.12694,98.3074599 C246.225769,98.3074599 246.298768,98.4048393 246.279676,98.5082298 L243.870716,110.654211 C243.843762,110.793668 243.728087,110.89225 243.595566,110.89225 L229.51017,110.89225 L224.018415,139.303003 C223.455763,142.075311 223.315381,142.841123 222.976217,144.929371 C222.342812,148.818537 225.953445,150.690387 229.541616,150.690387 C232.293108,150.690387 234.23263,149.727412 236.181136,148.89067 C236.25975,148.857008 236.341733,148.931546 236.323764,149.021712 L233.353275,164.084268 C233.336429,164.172029 233.270169,164.24296 233.188186,164.2646 C230.4906,165.006367 228.1771,165.484848 225.488499,165.484848 C214.666709,165.484848 207.027667,160.954901 207.027667,148.295574 C207.027667,143.207798 207.990128,138.234233 209.051418,133.003395 L213.573974,110.89225 L202.177179,110.89225 C202.081719,110.89225 202.012089,110.799679 202.032304,110.699896 L204.525493,98.4300858 C204.541216,98.3579529 204.598492,98.3074599 204.666999,98.3074599" id="Fill-1" fill="#FFFFFF"></path>
        </g>
    </g>
</svg>