<?xml version="1.0" encoding="utf-8"?>
<!-- Generator: Adobe Illustrator 24.1.1, SVG Export Plug-In . SVG Version: 6.00 Build 0)  -->
<svg version="1.1" id="Layer_1" xmlns="http://www.w3.org/2000/svg" xmlns:xlink="http://www.w3.org/1999/xlink" x="0px" y="0px"
	 viewBox="0 0 1366 400" style="enable-background:new 0 0 1366 400;" xml:space="preserve">
<style type="text/css">
	.st0{fill:#FFC0CB;}
	.st1{fill:none;stroke:#FF00FF;stroke-width:1.7758;stroke-miterlimit:10;}
	.st2{fill:#FF7BAC;}
</style>
<g>
	<g>
		
			<image style="overflow:visible;opacity:0.75;" width="115" height="199" xlink:href="BEF790AB.png"  transform="matrix(1 0 0 1 9.9549 102.9549)">
		</image>
		<g>
			<path class="st0" d="M63.9,253.1v-95.4H26V110h82.5v47.7H93.6V277H29L63.9,253.1z"/>
			<path class="st1" d="M63.9,253.1v-95.4H26V110h82.5v47.7H93.6V277H29L63.9,253.1z"/>
		</g>
	</g>
	<g>
		
			<image style="overflow:visible;opacity:0.75;" width="74" height="199" xlink:href="BEF790AC.png"  transform="matrix(1 0 0 1 94.9549 102.9549)">
		</image>
		<g>
			<path class="st0" d="M123.3,133.9L111.4,110h41.6v167h-41.6l11.9-23.9V133.9z"/>
			<path class="st1" d="M123.3,133.9L111.4,110h41.6v167h-41.6l11.9-23.9V133.9z"/>
		</g>
	</g>
	<g>
		
			<image style="overflow:visible;opacity:0.75;" width="92" height="199" xlink:href="BEF790AD.png"  transform="matrix(1 0 0 1 148.9549 102.9549)">
		</image>
		<g>
			<path class="st0" d="M215.5,157.7h-14.9c-4,0-5.9,4-5.9,11.9v47.7c0,8,2,11.9,5.9,11.9h23.8l-8.9,47.7h-26.8
				c-15.9,0-23.8-15.9-23.8-47.7v-71.6c0-31.8,7.9-47.7,23.8-47.7h35.7L215.5,157.7z"/>
			<path class="st1" d="M215.5,157.7h-14.9c-4,0-5.9,4-5.9,11.9v47.7c0,8,2,11.9,5.9,11.9h23.8l-8.9,47.7h-26.8
				c-15.9,0-23.8-15.9-23.8-47.7v-71.6c0-31.8,7.9-47.7,23.8-47.7h35.7L215.5,157.7z"/>
		</g>
	</g>
	<g>
		
			<image style="overflow:visible;opacity:0.75;" width="123" height="199" xlink:href="BEF790AF.png"  transform="matrix(1 0 0 1 212.9549 102.9549)">
		</image>
		<g>
			<path class="st0" d="M319.6,277h-35.7L272,241.2V277h-41.6l11.9-23.9V133.9L230.4,110H272v35.8l11.9-35.8h35.7l-32.7,83.5
				L319.6,277z"/>
			<path class="st1" d="M319.6,277h-35.7L272,241.2V277h-41.6l11.9-23.9V133.9L230.4,110H272v35.8l11.9-35.8h35.7l-32.7,83.5
				L319.6,277z"/>
		</g>
	</g>
	<g>
		
			<image style="overflow:visible;opacity:0.75;" width="104" height="199" xlink:href="BEF790AA.png"  transform="matrix(1 0 0 1 302.9549 102.9549)">
		</image>
		<g>
			<path class="st0" d="M331.5,133.9L319.6,110H391v47.7h-29.7v11.9h17.8v47.7h-17.8v11.9H391V277h-71.4l11.9-23.9V133.9z"/>
			<path class="st1" d="M331.5,133.9L319.6,110H391v47.7h-29.7v11.9h17.8v47.7h-17.8v11.9H391V277h-71.4l11.9-23.9V133.9z"/>
		</g>
	</g>
	<g>
		
			<image style="overflow:visible;opacity:0.75;" width="93" height="199" xlink:href="BEF790B8.png"  transform="matrix(1 0 0 1 385.9549 102.9549)">
		</image>
		<g>
			<path class="st0" d="M417.7,253.1v-95.4h-14.9V110h59.5v47.7h-14.9V277h-41.6L417.7,253.1z"/>
			<path class="st1" d="M417.7,253.1v-95.4h-14.9V110h59.5v47.7h-14.9V277h-41.6L417.7,253.1z"/>
		</g>
	</g>
	<g>
		
			<image style="overflow:visible;opacity:0.75;" width="66" height="78" xlink:href="BEF790B9.png"  transform="matrix(1 0 0 1 486.0187 158.0187)">
		</image>
		<g>
			<path class="st2" d="M542.7,193.6h-21.3c-1.3,13.1-5.3,22.8-17.1,30.3c-0.9-1.1-2.4-2.4-3.4-3.3c11-6.7,14.9-15.1,16.2-27.1
				l-21.8-15.7v-4.5l22.1,15.7c0.3-4.5,0.3-9.1,0.4-14.6c-6.2,1.6-14.2,3.1-20.9,3.9c-0.3-1.3-0.7-2.7-1.3-3.9
				c21.4-2.9,34-7.5,37.8-9.4l3.2,4c-0.2,0.1-0.5,0.2-0.8,0.2c-0.2,0-0.4,0-0.7-0.1c-3.4,1.4-8.8,3.2-13.6,4.5l2,0.2
				c-0.1,0.6-0.5,1-1.3,1.2c-0.1,5.1-0.1,9.7-0.4,14h20.9V193.6z"/>
		</g>
	</g>
	<g>
		
			<image style="overflow:visible;opacity:0.75;" width="70" height="79" xlink:href="BEF790BA.png"  transform="matrix(1 0 0 1 541.0187 157.0187)">
		</image>
		<g>
			<path class="st2" d="M601.7,180.5v4.6h-15.1c-0.2,0.4-0.5,0.7-1.1,0.8c-1.8,15.8-7.6,29.5-20.4,37.8c-1-1-2.6-2.2-3.8-3.1
				c12.5-7.5,18.3-20.3,19.8-35.6h-16.9c-2.8,5.6-6.3,10.6-9.6,14c-0.9-0.7-2.6-1.8-3.8-2.4c6.6-6.3,13.6-19.6,16.6-32.2l5.8,1.5
				c-0.1,0.5-0.7,1-1.6,1c-1.3,4.2-3.3,9.4-5.2,13.5H601.7z"/>
		</g>
	</g>
	<g>
		
			<image style="overflow:visible;opacity:0.75;" width="59" height="62" xlink:href="BEF790BB.png"  transform="matrix(1 0 0 1 601.0187 172.0187)">
		</image>
		<g>
			<path class="st2" d="M614.2,182.6c1.8,4.1,3.8,10.7,4.6,14.6l-3.4,1c-0.7-3.9-2.6-10.1-4.4-14.5L614.2,182.6z M650.5,183
				c-0.1,0.6-0.7,0.7-1.3,0.7c-4.7,19.9-13.7,32-28.4,38.7c-0.5-0.8-1.6-2.4-2.4-3.1c14.6-6.4,22.9-17.5,27.3-37.8L650.5,183z
				 M629,179.3c1.3,4.6,2.4,11.1,2.9,15.4l-3.6,0.7c-0.4-4.4-1.5-10.6-2.9-15.3L629,179.3z"/>
		</g>
	</g>
	<g>
		
			<image style="overflow:visible;opacity:0.75;" width="48" height="78" xlink:href="99C7E7B4.png"  transform="matrix(1 0 0 1 659.0187 157.0187)">
		</image>
		<g>
			<path class="st2" d="M694.9,200.5c-6.2-3.7-14.7-8.2-21.4-11.1v34H669v-59.1l6.1,0.4c-0.1,0.7-0.5,1.2-1.6,1.4V186l0.9-1.4
				c7.1,2.9,16.6,7.6,22.9,11.4L694.9,200.5z"/>
		</g>
	</g>
	<g>
		
			<image style="overflow:visible;opacity:0.75;" width="75" height="82" xlink:href="99C7E7CE.png"  transform="matrix(1 0 0 1 697.0187 155.0187)">
		</image>
		<g>
			<path class="st2" d="M729.2,198.3c-0.1,0.5-0.5,0.8-1.3,0.9c-1.6,12-4.6,21.4-18.8,26.5c-0.5-1.2-1.6-2.9-2.5-3.9
				c13.3-4.2,16.2-12.6,17.2-24.1L729.2,198.3z M744.4,217.7c0,2,0.4,2.4,2.9,2.4h8.3c2.4,0,2.8-1.4,3-10.5c0.9,0.8,2.6,1.6,3.8,1.9
				c-0.5,10.4-1.6,13-6.5,13h-9.1c-5.2,0-6.6-1.4-6.6-6.8v-20.9h-32.9v-4.5h25v-14.4h-13.2c-1.6,3.9-3.4,7.8-5.5,10.7
				c-0.9-0.7-2.5-1.7-3.5-2.2c4.3-5.8,7.4-15.1,9-22.3l5.2,1.4c-0.2,0.5-0.5,0.7-1.3,0.7c-0.5,2.2-1.2,4.7-2.1,7.3h11.6v-11l5.4,0.3
				c-0.1,0.5-0.4,0.9-1.2,1v9.7h20.6v4.4h-20.6v14.4h25v4.5h-17.1V217.7z"/>
		</g>
	</g>
	<g>
		
			<image style="overflow:visible;opacity:0.75;" width="75" height="82" xlink:href="99C7E7D1.png"  transform="matrix(1 0 0 1 758.0187 155.0187)">
		</image>
		<g>
			<path class="st2" d="M823.2,215.6v3.4h-26v6.7h-4.1V219h-25.8v-3.4h25.8v-3.2h-17.3v-15.5h17.3v-3.1h-23.3v-3.3h5.6
				c-0.4-0.9-1.3-2.4-2.1-3.3c6.9-1.1,10.4-3,12.1-5.4c-6,0.8-11.9,1.5-15.9,1.8c-0.1,0.5-0.4,0.8-0.8,1l-1.2-3.9l19.2-1.6
				c0.2-1,0.3-1.8,0.4-2.8h-16v-3.1h16v-3.4h-17.4v-3.1h17.4v-4.3l5,0.3c-0.1,0.5-0.4,0.8-1.2,1v12c0,6.1-2.4,11.9-15.2,14.8h17.4
				v-4.8l5.2,0.3c-0.1,0.5-0.4,0.8-1.2,1v3.5h23.9v3.3h-23.9v3.1h17.6v15.5h-17.6v3.2H823.2z M779.8,199.7v3.5h13.4v-3.5H779.8z
				 M779.8,209.6h13.4V206h-13.4V209.6z M810.8,199.7h-13.6v3.5h13.6V199.7z M810.8,209.6V206h-13.6v3.6H810.8z M803.6,182.8v5.6
				h-3.8v-25.9l5.1,0.3c-0.1,0.5-0.4,0.8-1.2,0.9v3h17.4v3.1h-17.4v3.4h16.3v3.1h-16.3v3.4H822v3.1H803.6z"/>
		</g>
	</g>
	<g>
		
			<image style="overflow:visible;opacity:0.75;" width="104" height="199" xlink:href="99C7E7D2.png"  transform="matrix(1 0 0 1 849.9549 102.9549)">
		</image>
		<g>
			<path class="st0" d="M889.8,110h41.6l-8.9,47.7h-26.8v11.9h17.8c15.9,0,23.8,15.9,23.8,47.7v11.9c0,31.8-7.9,47.7-23.8,47.7H872
				l8.9-47.7h26.8v-11.9h-17.8c-15.9,0-23.8-15.9-23.8-47.7v-11.9C866,125.9,874,110,889.8,110z"/>
			<path class="st1" d="M889.8,110h41.6l-8.9,47.7h-26.8v11.9h17.8c15.9,0,23.8,15.9,23.8,47.7v11.9c0,31.8-7.9,47.7-23.8,47.7H872
				l8.9-47.7h26.8v-11.9h-17.8c-15.9,0-23.8-15.9-23.8-47.7v-11.9C866,125.9,874,110,889.8,110z"/>
		</g>
	</g>
	<g>
		
			<image style="overflow:visible;opacity:0.75;" width="105" height="199" xlink:href="99C7E7D0.png"  transform="matrix(1 0 0 1 925.9549 102.9549)">
		</image>
		<g>
			<path class="st0" d="M955.2,133.9L943.3,110h71.4v47.7H985v11.9h17.8v47.7H985v11.9h29.7V277h-71.4l11.9-23.9V133.9z"/>
			<path class="st1" d="M955.2,133.9L943.3,110h71.4v47.7H985v11.9h17.8v47.7H985v11.9h29.7V277h-71.4l11.9-23.9V133.9z"/>
		</g>
	</g>
	<g>
		
			<image style="overflow:visible;opacity:0.75;" width="116" height="199" xlink:href="99C7E7D6.png"  transform="matrix(1 0 0 1 1003.9549 102.9549)">
		</image>
		<g>
			<path class="st0" d="M1032.5,133.9l-11.9-23.9h41.6l11.9,71.6V110h29.7v167h-29.7l-11.9-71.6V277h-41.6l11.9-23.9V133.9z"/>
			<path class="st1" d="M1032.5,133.9l-11.9-23.9h41.6l11.9,71.6V110h29.7v167h-29.7l-11.9-71.6V277h-41.6l11.9-23.9V133.9z"/>
		</g>
	</g>
	<g>
		
			<image style="overflow:visible;opacity:0.75;" width="117" height="199" xlink:href="99C7E7DD.png"  transform="matrix(1 0 0 1 1092.9548 102.9549)">
		</image>
		<g>
			<path class="st0" d="M1121.8,133.9l-11.9-23.9h59.5c15.9,0,23.8,15.9,23.8,47.7v23.9c0,31.8-7.9,47.7-23.8,47.7h-17.8V277h-41.6
				l11.9-23.9V133.9z M1157.4,181.6c4,0,5.9-4,5.9-11.9c0-8-2-11.9-5.9-11.9h-5.9v23.9H1157.4z"/>
			<path class="st1" d="M1121.8,133.9l-11.9-23.9h59.5c15.9,0,23.8,15.9,23.8,47.7v23.9c0,31.8-7.9,47.7-23.8,47.7h-17.8V277h-41.6
				l11.9-23.9V133.9z M1157.4,181.6c4,0,5.9-4,5.9-11.9c0-8-2-11.9-5.9-11.9h-5.9v23.9H1157.4z"/>
		</g>
	</g>
	<g>
		
			<image style="overflow:visible;opacity:0.75;" width="126" height="199" xlink:href="99C7E7DE.png"  transform="matrix(1 0 0 1 1172.9548 102.9549)">
		</image>
		<g>
			<path class="st0" d="M1190.2,277l12.5-25.1l17-119.2l-11.4-22.8h50.3l23.8,167h-29.7l-1.5-11.9h-20.8l-1.5,11.9H1190.2z
				 M1245.2,217.4l-4.5-35.8l-4.5,35.8H1245.2z"/>
			<path class="st1" d="M1190.2,277l12.5-25.1l17-119.2l-11.4-22.8h50.3l23.8,167h-29.7l-1.5-11.9h-20.8l-1.5,11.9H1190.2z
				 M1245.2,217.4l-4.5-35.8l-4.5,35.8H1245.2z"/>
		</g>
	</g>
	<g>
		
			<image style="overflow:visible;opacity:0.75;" width="75" height="199" xlink:href="99C7E7DF.png"  transform="matrix(1 0 0 1 1261.9548 102.9549)">
		</image>
		<g>
			<path class="st0" d="M1291.3,133.9l-11.9-23.9h41.6v167h-41.6l11.9-23.9V133.9z"/>
			<path class="st1" d="M1291.3,133.9l-11.9-23.9h41.6v167h-41.6l11.9-23.9V133.9z"/>
		</g>
	</g>
</g>
</svg>
